<svg xmlns="http://www.w3.org/2000/svg" width="36" height="47.94" viewBox="0 0 36 47.94">
<defs>
<style>
      .a {
        fill: #d3d4ed;
        opacity: 0.99;
      }
    </style>
</defs>
<title>31 Fire</title>
<path class="a" d="M31.35,11.77A35.79,35.79,0,0,0,19.84.3a2,2,0,0,0-3,2.44A20.24,20.24,0,0,1,12.49,22.5s-2.67-2.88-2.23-8.66a2,2,0,0,0-3.48-1.55A24.58,24.58,0,0,0,.18,25.93C-1.29,37,6.55,47.37,17.09,47.92,27.44,48.46,36,39.72,36,28.86A33.54,33.54,0,0,0,31.35,11.77Z" id="id_102" style="fill: rgb(245, 126, 8);"></path>
</svg>